# xmcd CD database file
#
# Track frame offsets:
#	150
#	22134
#	39442
#	62180
#	79925
#	97371
#	112514
#	126906
#	144287
#	163084
#	179428
#	200869
#	217756
#	233826
#	252132
#	269571
#	288215
#	304464
#
# Disc length: 4278 seconds
#
# Revision: 1
# Processed by: cddbd v1.5.2PL0 Copyright (c) Steve Scherf et al.
# Submitted via: CDex 1.51
#
DISCID=0d10b412
DTITLE=Various Artist - SF-309
DYEAR=2011
DGENRE=Blues
TTITLE0=Lana Del Ray - Video Games
TTITLE1=Rihanna Ft Calvin Harris - We Found Love
TTITLE2=Sak Noel - Loca People (clean)
TTITLE3=Saturdays The - My Heart Takes Over
TTITLE4=Beyonce - Countdown (clean)
TTITLE5=Ed Sheeran - Lego House
TTITLE6=Rizzle Kicks - When I Was A Youngster
TTITLE7=JLS - Take A Chance On Me
TTITLE8=ProFessor Green Ft Emeli Sande - Read All About It
TTITLE9=Wanted The - Lightning
TTITLE10=Florence and The Machine - Shake It Out
TTITLE11=David Guetta Ft Usher - Without You
TTITLE12=Charlene Soraia - Wherever You Will Go
TTITLE13=Katy Perry - The One That Got Away
TTITLE14=Labrinth Ft Tinie Tempah - Earthquake
TTITLE15=Kelly Clarkson - Mr Know It All
TTITLE16=LMFAO - Sexy And I Know It
TTITLE17=Maroon 5 Ft Christina Aguilra - Moves Like Jagger
EXTD=YEAR: 2011
EXTT0=
EXTT1=
EXTT2=
EXTT3=
EXTT4=
EXTT5=
EXTT6=
EXTT7=
EXTT8=
EXTT9=
EXTT10=
EXTT11=
EXTT12=
EXTT13=
EXTT14=
EXTT15=
EXTT16=
EXTT17=
PLAYORDER=
